<?xml version="1.0" encoding="utf-8"?>
<!-- Generator: Adobe Illustrator 24.1.0, SVG Export Plug-In . SVG Version: 6.00 Build 0)  -->
<svg version="1.1" id="Effect" xmlns="http://www.w3.org/2000/svg" xmlns:xlink="http://www.w3.org/1999/xlink" x="0px" y="0px"
	 viewBox="0 0 512 512" style="enable-background:new 0 0 512 512;" xml:space="preserve">
<style type="text/css">
	.st0{fill:#EFEFEF;}
	.st1{fill:#B0D259;}
	.st2{fill:#9AB250;}
	.st3{fill:#F3F3F1;}
	.st4{fill:#D5DBE1;}
	.st5{fill:#A4AFC1;}
</style>
<g id="blub">
	<path class="st0" d="M119.1,59.3c98.4,0,165.9-51,213.3-51s147,27.2,147,245.3S345.5,503.7,293.4,503.7
		C49.2,503.7-55.1,59.3,119.1,59.3L119.1,59.3z"/>
</g>
<g id="back-paper">
	<g>
		<path class="st1" d="M326.7,110.2c-4.8-8.5-13.9-14.2-24.5-14.2H138.7c-15.6,0-28.4,12.8-28.4,28.4v220.4c0,3.9,0.8,7.7,2.3,11.1
			l-2.3,3.2c4.8,8.5,13.9,14.2,24.5,14.2h163.6c15.6,0,28.4-12.8,28.4-28.4V124.4c0-3.9-0.8-7.7-2.3-11.1L326.7,110.2z"/>
	</g>
	<g>
		<path class="st2" d="M142.2,359.1l2.3-3.2c-1.5-3.4-2.3-7.1-2.3-11.1V124.4c0-15.6,12.8-28.4,28.4-28.4h-32
			c-15.6,0-28.4,12.8-28.4,28.4v220.4c0,3.9,0.8,7.7,2.3,11.1l-2.3,3.2c4.8,8.5,13.9,14.2,24.5,14.2h32
			C156.2,373.3,147.1,367.6,142.2,359.1z"/>
	</g>
	<g>
		<path d="M149.3,384h-10.7c-21.6,0-39.1-17.5-39.1-39.1V124.4c0-21.6,17.5-39.1,39.1-39.1h163.6c13.9,0,26.9,7.5,33.7,19.6l5.3,9.3
			l-18.6,10.5l-5.3-9.3c-3.1-5.5-8.8-8.8-15.2-8.8H138.7c-9.8,0-17.8,8-17.8,17.8v220.4c0,9.8,8,17.8,17.8,17.8h10.7L149.3,384z"/>
	</g>
</g>
<g id="front-paper">
	<g id="bg">
		<path class="st3" d="M401.8,387.6V181.3c0-15.7-12.7-28.4-28.4-28.4H209.8c-15.7,0-28.4,12.7-28.4,28.4v206.2
			c0,15.7,12.7,28.4,28.4,28.4h163.6C389,416,401.8,403.3,401.8,387.6z"/>
	</g>
	<g id="shadow">
		<path class="st4" d="M213.3,387.6V181.3c0-15.7,12.7-28.4,28.4-28.4h-32c-15.7,0-28.4,12.7-28.4,28.4v206.2
			c0,15.7,12.7,28.4,28.4,28.4h32C226.1,416,213.3,403.3,213.3,387.6z"/>
	</g>
	<g id="line4">
		<path d="M238.2,305.8h106.7v21.3H238.2V305.8z"/>
	</g>
	<g id="line3">
		<path d="M238.2,362.7h106.7V384H238.2V362.7z"/>
	</g>
	<g id="line2">
		<path d="M238.2,256h106.7v21.3H238.2V256z"/>
	</g>
	<g id="line1">
		<path d="M238.2,199.1h106.7v21.3H238.2V199.1z"/>
	</g>
	<g id="outline">
		<path d="M373.3,426.7H209.8c-21.6,0-39.1-17.5-39.1-39.1V181.3c0-21.6,17.5-39.1,39.1-39.1h163.6c21.6,0,39.1,17.5,39.1,39.1
			v206.2C412.4,409.1,394.9,426.7,373.3,426.7z M209.8,163.6c-9.8,0-17.8,8-17.8,17.8v206.2c0,9.8,8,17.8,17.8,17.8h163.6
			c9.8,0,17.8-8,17.8-17.8V181.3c0-9.8-8-17.8-17.8-17.8H209.8z"/>
	</g>
</g>
<g id="circle">
	<path class="st5" d="M455.1,401.8c-11.8,0-21.3-9.6-21.3-21.3c0-11.8,9.6-21.3,21.3-21.3s21.3,9.6,21.3,21.3
		C476.4,392.2,466.9,401.8,455.1,401.8z M455.1,373.3c-3.9,0-7.1,3.2-7.1,7.1s3.2,7.1,7.1,7.1c3.9,0,7.1-3.2,7.1-7.1
		S459,373.3,455.1,373.3z"/>
</g>
<g id="tick">
	<g>
		<path class="st5" d="M98.7,61.5l20.1-20.1l10.1,10.1l-20.1,20.1L98.7,61.5z"/>
	</g>
	<g>
		<path class="st5" d="M40.8,119.3L61,99.2L71,109.2l-20.1,20.1L40.8,119.3z"/>
	</g>
	<g>
		<path class="st5" d="M43.4,51.4l10.1-10.1l20.1,20.1L63.5,71.5L43.4,51.4z"/>
	</g>
</g>
</svg>
