<?xml version="1.0" standalone="no"?>
<!DOCTYPE svg PUBLIC "-//W3C//DTD SVG 20010904//EN"
 "http://www.w3.org/TR/2001/REC-SVG-20010904/DTD/svg10.dtd">
<svg version="1.0" xmlns="http://www.w3.org/2000/svg"
 width="700.000000pt" height="700.000000pt" viewBox="0 0 700.000000 700.000000"
 preserveAspectRatio="xMidYMid meet">
<metadata>
Created by potrace 1.11, written by Peter Selinger 2001-2013
</metadata>
<g transform="translate(0.000000,700.000000) scale(0.100000,-0.100000)"
fill="#000000" stroke="none">
<path d="M3652 6719 c-29 -16 -50 -34 -47 -39 3 -5 -6 -31 -22 -57 -20 -35
-27 -60 -27 -99 0 -45 -4 -54 -23 -63 -21 -9 -25 -8 -33 15 -6 14 -10 28 -10
32 0 4 -4 13 -9 21 -7 12 -17 11 -60 -5 -28 -10 -51 -21 -51 -26 0 -4 11 -38
25 -74 l25 -67 -32 -79 -32 -79 -18 34 c-36 71 -104 107 -201 107 l-48 0 6
-47 c9 -70 9 -70 57 -76 95 -14 137 -24 160 -39 56 -36 216 -84 215 -64 -1 32
4 47 13 41 6 -3 10 -17 10 -31 0 -23 2 -24 75 -24 41 0 119 5 175 11 l100 12
0 28 c0 15 8 35 17 45 22 21 135 74 146 67 4 -2 7 -15 7 -29 0 -23 3 -24 61
-24 l61 0 -7 53 c-10 79 -24 127 -38 127 -7 0 -33 -7 -58 -14 -31 -10 -50 -11
-57 -4 -6 6 -35 -2 -85 -25 l-75 -35 -20 28 c-12 15 -24 52 -28 81 -9 70 -59
221 -93 281 l-27 47 -52 -30z m-22 -449 c-8 -5 -19 -10 -25 -10 -5 0 -3 5 5
10 8 5 20 10 25 10 6 0 3 -5 -5 -10z m110 -80 c0 -5 -5 -10 -11 -10 -5 0 -7 5
-4 10 3 6 8 10 11 10 2 0 4 -4 4 -10z"/>
<path d="M2931 6519 c-24 -4 -62 -17 -85 -28 -22 -11 -54 -23 -71 -27 -16 -4
-62 -22 -101 -40 -72 -33 -119 -76 -130 -120 -12 -48 2 -130 34 -198 18 -38
32 -70 32 -71 0 -2 -24 20 -52 49 -43 42 -65 55 -114 69 -33 9 -79 17 -102 17
l-42 0 0 -59 c0 -33 -4 -63 -10 -66 -5 -3 -10 -19 -10 -35 0 -22 -8 -33 -35
-50 -19 -12 -35 -28 -35 -35 0 -8 -13 -23 -29 -34 -23 -17 -44 -21 -101 -21
-66 0 -144 -14 -162 -29 -8 -7 18 -102 31 -110 4 -4 22 -25 38 -48 l31 -43 65
64 c70 67 52 59 326 158 22 8 23 12 17 61 -4 28 -11 56 -17 62 -11 11 -12 55
0 55 4 0 23 -10 42 -23 25 -17 34 -30 34 -50 -1 -15 3 -27 7 -27 4 0 8 -9 8
-20 0 -24 5 -24 60 -5 29 10 47 12 60 5 10 -6 28 -10 39 -10 11 0 24 -7 28
-14 7 -13 26 -10 123 16 63 16 116 31 118 33 2 2 -2 39 -9 83 -11 72 -10 83 5
107 19 28 13 53 -9 35 -8 -6 -29 -8 -54 -4 l-41 7 0 51 c0 70 33 134 82 159
21 10 69 21 111 24 l75 6 6 36 c13 81 13 81 -56 80 -35 -1 -83 -5 -107 -10z"/>
<path d="M4533 5928 c-36 -38 -40 -46 -30 -66 7 -15 16 -21 26 -16 9 3 35 13
58 21 l42 15 -21 44 c-12 24 -25 44 -28 44 -3 0 -24 -19 -47 -42z"/>
<path d="M1531 5765 c-73 -16 -128 -49 -165 -98 -32 -41 -56 -108 -56 -154 0
-32 2 -35 23 -28 12 4 38 7 58 6 35 -1 37 0 43 38 13 82 75 122 196 126 l65 2
6 54 c3 30 4 56 2 58 -9 11 -115 9 -172 -4z"/>
<path d="M1700 5558 c0 -56 9 -59 80 -31 36 14 69 29 74 33 11 11 -59 30 -111
30 -42 0 -43 -1 -43 -32z"/>
<path d="M4856 5541 c-3 -5 10 -21 29 -35 40 -31 44 -27 14 15 -21 30 -34 36
-43 20z"/>
<path d="M5144 5342 l-41 -17 89 -95 c106 -112 219 -262 305 -401 33 -55 64
-95 68 -89 6 10 137 80 150 80 3 0 5 -21 5 -46 0 -71 -30 -113 -82 -114 -38 0
-41 -11 -16 -70 21 -51 22 -52 56 -46 94 15 162 107 162 222 0 33 -5 87 -12
118 l-11 58 -34 -5 c-18 -3 -47 -13 -63 -21 -26 -12 -30 -12 -30 0 0 20 -11
18 -91 -18 l-72 -32 -22 28 c-15 18 -24 48 -28 85 -14 129 -113 342 -172 369
-37 17 -113 14 -161 -6z"/>
<path d="M965 5226 c-51 -16 -173 -82 -204 -109 -68 -62 -67 -165 5 -278 18
-29 23 -44 15 -47 -36 -12 -160 -105 -154 -115 3 -7 20 -29 36 -50 l29 -38 32
24 c54 40 60 43 46 17 -7 -13 -10 -45 -8 -75 l4 -52 -44 -23 c-39 -21 -75 -57
-141 -140 -17 -22 -22 -23 -40 -12 -31 18 -34 16 -70 -34 -35 -50 -36 -49 24
-81 17 -9 34 -22 38 -29 11 -19 95 -61 150 -75 l45 -11 -19 -31 c-34 -57 -21
-152 29 -209 14 -17 11 -18 -44 -18 l-60 0 -11 -52 c-6 -29 -9 -55 -6 -58 3
-3 45 -7 94 -8 76 -3 94 -1 124 17 l35 21 65 -32 c35 -17 66 -39 68 -49 3 -10
-6 -28 -22 -43 -25 -24 -29 -25 -47 -11 -10 8 -22 15 -25 15 -3 0 -22 -24 -42
-54 l-35 -53 41 -23 c23 -13 46 -29 50 -37 8 -13 79 -53 94 -53 4 0 6 53 5
117 -5 159 13 357 49 533 32 159 112 406 166 515 l35 69 -32 29 c-17 16 -30
30 -28 31 1 1 15 11 29 22 l27 20 -34 47 c-19 26 -38 46 -44 44 -5 -1 -27 18
-49 43 l-39 45 -30 -29 c-17 -16 -37 -26 -45 -23 -8 3 -33 33 -56 67 -62 93
-54 136 30 161 28 9 38 17 35 28 -3 9 -8 35 -11 59 -4 23 -10 42 -13 41 -4 0
-25 -6 -47 -13z"/>
<path d="M1090 5201 c0 -6 4 -13 10 -16 6 -3 7 1 4 9 -7 18 -14 21 -14 7z"/>
<path d="M1384 4984 c-5 -38 -9 -44 -25 -39 -15 5 -23 -4 -42 -47 l-24 -53 21
-12 c12 -7 26 -12 32 -13 9 0 147 192 141 196 -1 1 -23 4 -49 7 l-47 6 -7 -45z"/>
<path d="M3350 4935 c-33 -15 -1105 -1074 -1152 -1138 -83 -114 11 -268 149
-243 34 7 100 69 612 579 329 328 579 586 587 604 29 67 8 138 -57 185 -35 26
-96 32 -139 13z"/>
<path d="M5932 4675 c-37 -17 -82 -54 -151 -126 l-98 -102 14 -37 15 -38 42
19 c48 22 91 24 106 7 6 -7 28 -41 50 -76 38 -60 40 -66 30 -103 -12 -44 -9
-54 19 -62 14 -3 18 -1 14 10 -4 9 2 16 16 20 12 3 28 18 36 34 14 26 14 29
-5 39 -15 8 -20 21 -20 54 l0 44 -47 -5 -48 -5 54 55 c100 102 149 110 191 28
l20 -41 53 21 c28 11 53 22 55 24 7 6 -41 91 -72 127 -17 20 -42 51 -55 69
-28 36 -92 69 -136 69 -16 0 -54 -11 -83 -25z"/>
<path d="M3771 4498 c-139 -73 -88 -278 70 -278 114 0 188 129 127 220 -52 76
-123 97 -197 58z"/>
<path d="M3395 4124 c-34 -17 -821 -797 -866 -858 -23 -31 -29 -49 -29 -89 0
-105 86 -172 184 -146 32 9 68 38 166 134 138 135 171 154 242 134 55 -14 103
-61 116 -110 6 -23 9 -46 7 -53 -2 -6 -6 -23 -9 -38 -4 -15 -26 -50 -51 -78
-67 -76 -72 -149 -13 -216 38 -43 92 -59 151 -44 37 10 93 63 474 443 370 371
433 438 442 472 29 110 -65 211 -175 190 -32 -5 -62 -30 -169 -135 -72 -71
-144 -134 -159 -140 -108 -41 -216 31 -216 143 0 56 16 90 60 132 43 41 60 76
60 127 0 110 -118 182 -215 132z"/>
<path d="M5930 4076 c0 -9 5 -16 10 -16 6 0 10 4 10 9 0 6 -4 13 -10 16 -5 3
-10 -1 -10 -9z"/>
<path d="M4605 3665 c-43 -23 -582 -563 -600 -601 -47 -100 24 -214 133 -214
24 0 55 6 70 14 33 18 585 572 601 603 6 12 11 45 11 73 0 45 -4 55 -38 92
-35 37 -45 42 -93 45 -37 3 -64 -1 -84 -12z"/>
<path d="M1028 3208 c-44 -44 -56 -134 -24 -183 15 -22 84 -63 90 -53 1 2 -9
59 -23 128 -24 117 -27 124 -43 108z"/>
<path d="M3764 2831 c-21 -15 -103 -93 -181 -173 -151 -154 -163 -175 -149
-252 12 -63 73 -116 132 -116 48 0 172 92 301 222 149 151 165 191 113 287
-34 65 -148 82 -216 32z"/>
<path d="M1080 2838 c-94 -26 -146 -108 -137 -216 6 -82 13 -89 73 -68 43 14
48 14 59 0 10 -14 18 -13 72 15 34 17 64 35 67 40 5 7 -27 97 -39 109 -1 2
-26 -11 -54 -29 -29 -17 -54 -29 -57 -26 -14 14 20 47 59 58 23 7 43 14 45 15
8 5 -33 114 -42 113 -6 0 -27 -5 -46 -11z"/>
<path d="M1431 2187 c-12 -31 -40 -40 -114 -35 l-55 3 -12 -54 c-10 -44 -10
-55 1 -63 8 -5 59 -8 114 -7 55 2 112 -1 127 -5 24 -7 29 -5 38 19 5 14 10 30
10 34 0 6 -78 112 -96 130 -2 2 -8 -8 -13 -22z"/>
<path d="M4805 1875 c-49 -24 -1385 -1367 -1385 -1392 0 -36 27 -47 125 -51
93 -4 94 -4 88 18 -5 19 81 108 563 591 412 411 580 573 608 584 28 12 53 15
85 10 45 -6 60 -20 629 -588 327 -327 580 -587 577 -594 -3 -10 18 -13 90 -13
82 0 98 3 116 21 14 14 18 27 13 42 -12 40 -1006 1357 -1035 1373 -38 19 -99
18 -129 -3 -14 -9 -47 -34 -73 -56 l-48 -40 -47 46 c-69 67 -117 81 -177 52z"/>
<path d="M4814 1574 c-29 -14 -1152 -1131 -1143 -1137 2 -1 539 -1 1193 1
l1190 3 -560 561 c-319 320 -573 566 -591 574 -40 17 -50 17 -89 -2z"/>
</g>
</svg>
